<?xml version="1.0" standalone="no"?>
<!DOCTYPE svg PUBLIC "-//W3C//DTD SVG 20010904//EN"
 "http://www.w3.org/TR/2001/REC-SVG-20010904/DTD/svg10.dtd">
<svg version="1.0" xmlns="http://www.w3.org/2000/svg"
 width="400.000000pt" height="400.000000pt" viewBox="0 0 400.000000 400.000000"
 preserveAspectRatio="xMidYMid meet">
<metadata>
Created by potrace 1.11, written by Peter Selinger 2001-2013
</metadata>
<g transform="translate(0.000000,400.000000) scale(0.100000,-0.100000)"
fill="#000000" stroke="none">
<path d="M2595 3100 c-69 -22 -82 -33 -143 -127 l-63 -96 56 -109 c30 -59 55
-119 55 -133 0 -13 4 -26 9 -30 11 -6 37 -84 47 -140 12 -70 10 -237 -3 -263
-7 -13 -13 -33 -13 -43 0 -11 -3 -20 -7 -20 -81 -15 -147 -16 -168 -5 -42 23
-48 44 -51 178 -1 71 -5 132 -9 136 -13 13 -106 7 -115 -8 -5 -8 -8 -71 -7
-140 l2 -125 -32 -2 c-27 -1 -33 3 -34 20 -1 12 0 27 1 32 12 46 12 57 1 50
-9 -5 -12 0 -11 16 3 39 -10 66 -31 65 -11 -1 -23 -6 -27 -13 -12 -20 -31 0
-46 49 -13 45 -13 47 10 67 15 13 24 16 28 8 3 -9 5 -8 5 1 1 7 6 10 11 7 6
-3 10 -2 10 4 0 5 -28 27 -62 48 -66 41 -165 73 -284 93 -71 11 -71 11 -83 51
-7 21 -16 39 -21 39 -26 0 -40 -15 -40 -41 0 -16 -3 -29 -7 -30 -5 0 -24 -2
-43 -5 -19 -2 -45 -4 -58 -4 -13 0 -58 -14 -100 -30 -84 -32 -229 -77 -277
-86 -16 -3 -34 -9 -40 -13 -5 -4 -37 -18 -70 -31 -68 -26 -88 -40 -59 -40 11
0 28 -6 38 -13 15 -11 18 -36 20 -227 3 -212 -2 -250 -30 -250 -29 0 -38 -33
-37 -129 2 -99 -11 -169 -34 -178 -7 -3 -13 -10 -13 -15 0 -6 -13 -23 -29 -38
-27 -27 -28 -31 -27 -114 1 -73 3 -86 18 -86 20 0 55 -47 61 -81 8 -50 31
-114 46 -127 8 -6 11 -12 5 -13 -5 0 2 -5 16 -11 38 -15 92 -19 107 -6 7 6 13
7 13 4 0 -17 41 18 60 52 35 63 50 67 135 37 40 -14 93 -25 118 -25 46 0 119
-32 156 -69 12 -12 25 -21 31 -21 5 0 10 -13 10 -28 0 -16 9 -38 19 -49 11
-12 18 -23 15 -26 -2 -2 2 -10 11 -17 8 -7 15 -23 15 -36 0 -13 5 -24 10 -24
6 0 10 -9 10 -20 0 -11 4 -20 8 -20 4 0 14 -15 20 -34 13 -36 105 -131 148
-154 14 -7 32 -11 40 -8 7 3 16 1 19 -4 3 -5 14 -7 25 -5 11 2 20 -2 20 -8 0
-7 4 -6 10 3 9 13 10 13 10 0 0 -12 2 -12 9 -1 6 9 11 10 15 2 4 -6 12 -9 17
-5 5 3 17 0 26 -8 12 -9 15 -9 9 0 -5 8 -1 12 11 13 35 1 58 8 61 19 2 5 7 8
12 5 17 -10 90 72 115 130 15 33 28 61 30 63 2 2 25 -8 53 -22 27 -14 76 -31
109 -39 54 -12 63 -12 104 6 24 10 70 21 102 24 60 6 68 12 71 57 1 23 2 23
46 10 29 -9 48 -10 54 -4 6 6 19 10 31 10 11 0 36 10 55 22 45 27 227 104 305
128 33 11 108 39 167 62 117 47 113 42 124 148 6 50 -25 140 -48 140 -15 0
-40 35 -31 44 4 3 17 6 30 6 32 0 62 29 68 65 3 16 7 43 9 58 6 34 -45 93 -72
82 -9 -3 -50 -9 -92 -12 l-75 -6 -28 40 c-19 27 -32 63 -39 109 -6 38 -17 74
-24 80 -8 6 -14 14 -14 18 0 4 -11 31 -25 60 -27 57 -83 119 -128 143 -34 17
-209 27 -255 14 -23 -7 -34 -6 -43 5 -6 8 -9 14 -6 14 3 0 1 17 -4 38 -11 49
-13 310 -1 325 13 18 36 123 29 134 -7 11 41 153 73 217 l20 41 -29 27 c-17
15 -33 39 -37 54 -4 17 -18 31 -40 40 -23 9 -34 21 -34 34 0 12 -7 20 -17 21
-10 1 -29 2 -43 3 -14 1 -34 -1 -45 -4z m-640 -710 c5 -18 8 -93 6 -167 -1
-60 -15 -68 -49 -28 -23 26 -28 28 -79 25 -28 -1 -33 2 -34 22 0 13 -2 44 -5
71 -3 38 0 51 16 67 12 12 25 18 30 15 5 -3 11 -2 13 2 3 5 26 8 51 8 33 0 47
-4 51 -15z m-861 -95 c0 -83 -12 -161 -22 -151 -4 4 -8 57 -8 117 -1 97 0 110
15 107 13 -3 16 -16 15 -73z m207 45 c0 -8 3 -51 6 -94 4 -71 3 -78 -12 -72
-9 3 -23 6 -31 6 -12 0 -12 5 2 31 8 17 17 41 20 52 5 27 -15 89 -26 82 -5 -3
-11 -2 -14 3 -2 4 9 8 25 7 19 0 29 -5 30 -15z m169 -19 c0 -9 -7 -29 -15 -45
-22 -42 -19 -56 20 -72 41 -17 37 -37 -6 -30 -44 7 -69 -3 -69 -28 0 -16 -2
-18 -9 -7 -5 8 -10 45 -10 82 0 37 -1 71 -2 76 -1 4 -1 16 0 25 2 30 91 29 91
-1z m265 -1 c13 -11 16 -26 12 -72 -3 -33 -6 -61 -9 -63 -2 -2 -17 -6 -34 -9
-54 -10 -68 13 -65 106 1 30 6 38 29 46 33 11 45 10 67 -8z m308 -7 c3 -5 8
-30 11 -58 4 -27 10 -60 13 -72 4 -18 1 -23 -13 -23 -33 0 -40 14 -43 88 -2
59 0 72 13 72 8 0 17 -3 19 -7z"/>
<path d="M1 1794 c0 -11 3 -14 6 -6 3 7 2 16 -1 19 -3 4 -6 -2 -5 -13z"/>
</g>
</svg>
